<svg xmlns="http://www.w3.org/2000/svg" viewBox="0 0 32 32"><defs><style>.a,.d{fill:none;stroke-miterlimit:10;}.a{stroke:#4e8cca;stroke-width:0.47px;}.b{fill:#d0731b;}.c{fill:#4e8cca;}.d{stroke:#2e5288;stroke-width:0.8px;}</style></defs><path class="a" d="M18.84,14.31l4.1-4Z"/><polyline class="a" points="20.28 23.91 17.71 18.96 13.77 15.67 5.79 14.82"/><circle class="b" cx="14.92" cy="10.17" r="1.11"/><circle class="b" cx="24.03" cy="17.24" r="1.26"/><circle class="b" cx="11.73" cy="21.6" r="2.22"/><path class="c" d="M19.93,16.55a3.74,3.74,0,0,1-1.81,3.21,3.69,3.69,0,0,1-1.95.55,3.77,3.77,0,1,1,3.76-3.76Z"/><path class="c" d="M26.17,9.25a2,2,0,1,1-2-2A2,2,0,0,1,26.17,9.25Z"/><path class="c" d="M7.36,14.53a1.68,1.68,0,0,1-.05.45,2,2,0,1,1,.05-.45Z"/><path class="c" d="M23.47,25.48a2.79,2.79,0,1,1-3.73-2.61,2.67,2.67,0,0,1,1-.17A2.78,2.78,0,0,1,23.47,25.48Z"/><polygon class="d" points="31.5 16.1 23.77 29.5 8.3 29.5 0.56 16.1 8.3 2.71 23.77 2.71 31.5 16.1"/></svg>