<?xml version="1.0" standalone="no"?>
<!DOCTYPE svg PUBLIC "-//W3C//DTD SVG 20010904//EN"
 "http://www.w3.org/TR/2001/REC-SVG-20010904/DTD/svg10.dtd">
<svg version="1.0" xmlns="http://www.w3.org/2000/svg"
 width="700.000000pt" height="700.000000pt" viewBox="0 0 700.000000 700.000000"
 preserveAspectRatio="xMidYMid meet">
<metadata>
Created by potrace 1.14, written by Peter Selinger 2001-2017
</metadata>
<g transform="translate(0.000000,700.000000) scale(0.100000,-0.100000)"
fill="#000000" stroke="none">
<path d="M1745 6460 c-12 -19 -46 -78 -76 -130 -67 -118 -56 -100 -224 -388
-5 -9 -25 -44 -44 -77 -19 -33 -89 -154 -156 -270 -67 -115 -207 -358 -312
-540 -105 -181 -199 -344 -209 -362 -18 -30 -121 -209 -175 -303 -180 -313
-265 -460 -280 -482 -11 -15 -19 -29 -19 -32 0 -2 -26 -49 -58 -103 -32 -54
-61 -105 -65 -113 -4 -8 -13 -24 -20 -35 -49 -82 -77 -135 -77 -148 0 -12 254
-462 319 -567 9 -13 139 -238 199 -344 53 -92 189 -327 238 -411 45 -78 320
-555 629 -1090 51 -88 102 -176 113 -195 11 -19 31 -54 44 -76 12 -23 61 -107
108 -188 l84 -146 1742 0 1742 0 16 24 c8 14 24 40 34 58 23 40 119 207 132
228 5 8 42 71 81 140 152 265 346 602 432 750 49 85 97 169 107 185 9 17 110
192 225 390 114 198 217 376 228 395 40 71 251 438 302 525 29 50 62 106 73
126 11 19 41 72 67 116 l47 81 -115 199 c-63 109 -140 243 -172 298 -32 55
-92 159 -133 230 -93 162 -436 755 -632 1095 -81 140 -156 271 -167 290 -26
45 -114 197 -223 385 -48 83 -98 170 -112 195 -38 68 -181 314 -185 320 -2 2
-788 5 -1745 5 l-1741 0 -22 -35z m3647 -560 c235 -407 261 -452 315 -548 24
-44 51 -90 80 -137 16 -27 170 -294 207 -359 16 -28 93 -161 171 -296 78 -135
229 -396 335 -580 106 -184 215 -372 241 -418 l49 -83 -56 -97 c-31 -53 -64
-110 -74 -127 -9 -16 -61 -106 -115 -200 -54 -93 -107 -186 -117 -205 -28 -49
-161 -278 -187 -320 -11 -19 -24 -41 -28 -49 -3 -8 -35 -64 -71 -125 -36 -61
-73 -126 -84 -144 -10 -18 -36 -64 -58 -103 -22 -38 -58 -100 -80 -138 -22
-39 -48 -85 -58 -103 -31 -54 -198 -340 -221 -378 -11 -19 -24 -41 -28 -49 -3
-8 -35 -64 -71 -125 -36 -61 -74 -127 -85 -146 -10 -19 -62 -109 -115 -200
-52 -91 -103 -178 -112 -195 -9 -16 -31 -55 -48 -85 l-31 -55 -1643 0 -1642 0
-266 460 c-146 253 -360 624 -476 825 -116 201 -254 439 -307 530 -52 91 -143
248 -201 348 -58 101 -106 188 -106 193 0 5 -4 9 -10 9 -5 0 -10 4 -10 9 0 5
-57 107 -126 227 -70 120 -129 225 -131 234 -3 10 69 144 163 306 92 159 175
303 184 319 10 17 33 57 52 90 19 33 54 94 78 135 24 41 123 212 220 380 97
168 238 411 312 540 75 129 145 251 156 270 21 36 59 100 104 180 14 25 49 86
78 135 29 50 61 105 72 123 10 18 51 91 92 160 40 70 79 139 87 152 8 14 20
33 28 43 13 16 101 17 1653 15 l1640 -3 240 -415z"/>
<path d="M5202 5404 c-282 -58 -433 -367 -304 -623 l27 -54 -155 -152 c-85
-84 -184 -181 -220 -215 -36 -35 -144 -141 -241 -236 l-176 -174 -29 28 c-149
144 -367 230 -574 226 -102 -1 -150 -9 -238 -36 -228 -70 -413 -236 -515 -461
-24 -53 -28 -57 -54 -53 -15 3 -59 8 -98 11 -38 3 -81 8 -95 10 -14 3 -54 7
-90 10 -36 3 -99 10 -140 15 -41 5 -109 12 -150 16 -41 3 -82 8 -92 9 -14 3
-92 11 -183 20 -16 1 -50 5 -75 8 -25 3 -76 9 -115 13 -38 3 -71 7 -72 8 -1 0
-2 26 -4 56 -12 246 -207 432 -444 425 -88 -3 -111 -9 -183 -43 -56 -26 -154
-113 -183 -162 -129 -213 -48 -505 168 -613 68 -34 112 -47 175 -51 171 -11
338 82 414 229 l29 56 65 -6 c36 -3 81 -7 100 -9 19 -3 62 -7 95 -11 33 -3 76
-8 95 -10 19 -2 82 -9 140 -15 58 -6 121 -13 140 -15 19 -3 64 -7 100 -10 35
-3 76 -7 90 -9 25 -4 89 -11 190 -21 30 -3 64 -7 75 -10 11 -2 27 -4 36 -4 13
-1 15 -9 8 -48 -12 -76 -4 -241 15 -318 94 -365 425 -626 796 -626 126 0 228
22 352 75 l37 16 39 -73 c22 -39 79 -148 127 -242 48 -93 110 -211 136 -262
52 -97 54 -103 39 -103 -20 0 -126 -75 -169 -119 -260 -270 -228 -697 69 -916
113 -83 206 -115 352 -120 60 -2 85 0 178 19 66 14 192 89 258 154 342 337
187 909 -278 1028 -72 19 -207 21 -263 6 -20 -6 -39 -7 -41 -4 -9 15 -89 168
-181 347 -54 105 -116 223 -138 264 l-39 75 36 29 c103 83 178 177 231 292 57
122 77 201 81 325 5 172 -37 334 -122 467 l-36 56 247 241 c136 133 315 307
398 388 l151 146 42 -29 c209 -144 501 -80 628 136 189 323 -96 724 -462 649z"/>
<path d="M3176 4999 c-86 -33 -140 -102 -152 -197 -27 -220 246 -356 405 -202
98 95 102 243 9 341 -69 72 -168 94 -262 58z"/>
<path d="M5195 3495 c-126 -28 -208 -131 -209 -260 -1 -108 43 -190 129 -241
54 -31 85 -38 156 -36 70 2 118 22 170 69 54 49 81 104 87 179 15 188 -149
331 -333 289z"/>
<path d="M2434 2740 c-353 -96 -470 -541 -211 -804 121 -123 287 -170 467
-132 66 14 169 78 226 138 180 195 180 471 -2 667 -119 129 -304 180 -480 131z"/>
</g>
</svg>
